<?xml version="1.0" encoding="UTF-8" standalone="no"?>
<!-- Created with Inkscape (http://www.inkscape.org/) -->

<svg
   width="512"
   height="512"
   viewBox="0 0 512 512"
   version="1.1"
   id="svg5"
   inkscape:version="1.1.1 (3bf5ae0d25, 2021-09-20)"
   sodipodi:docname="sovereignty.svg"
   xmlns:inkscape="http://www.inkscape.org/namespaces/inkscape"
   xmlns:sodipodi="http://sodipodi.sourceforge.net/DTD/sodipodi-0.dtd"
   xmlns="http://www.w3.org/2000/svg"
   xmlns:svg="http://www.w3.org/2000/svg">
  <sodipodi:namedview
     id="namedview7"
     pagecolor="#ffffff"
     bordercolor="#666666"
     borderopacity="1.0"
     inkscape:pageshadow="2"
     inkscape:pageopacity="0.0"
     inkscape:pagecheckerboard="0"
     inkscape:document-units="px"
     showgrid="false"
     inkscape:object-paths="true"
     inkscape:snap-intersection-paths="false"
     inkscape:snap-smooth-nodes="false"
     inkscape:snap-midpoints="false"
     inkscape:object-nodes="false"
     inkscape:snap-bbox="true"
     inkscape:bbox-nodes="true"
     inkscape:zoom="1.4042969"
     inkscape:cx="227.51599"
     inkscape:cy="256"
     inkscape:window-width="1920"
     inkscape:window-height="1137"
     inkscape:window-x="-8"
     inkscape:window-y="-8"
     inkscape:window-maximized="1"
     inkscape:current-layer="layer1" />
  <defs
     id="defs2" />
  <g
     inkscape:label="Layer 1"
     inkscape:groupmode="layer"
     id="layer1">
    <circle
       style="fill:#434234;fill-opacity:1;stroke-width:1.70095"
       id="path2307"
       cx="256"
       cy="256"
       r="37.741306" />
    <path
       sodipodi:type="star"
       style="fill:none;fill-opacity:1;stroke:#434234;stroke-width:4.53898;stroke-miterlimit:4;stroke-dasharray:none;stroke-opacity:1"
       id="path2460"
       inkscape:flatsided="false"
       sodipodi:sides="14"
       sodipodi:cx="255.49661"
       sodipodi:cy="256.39828"
       sodipodi:r1="204.27264"
       sodipodi:r2="194.05901"
       sodipodi:arg1="0.56533646"
       sodipodi:arg2="0.78973594"
       inkscape:rounded="0.5"
       inkscape:randomized="0"
       d="m 427.98615,365.82713 c -12.25126,19.31131 -19.62435,12.28456 -35.86562,28.38553 -16.24127,16.10098 -9.27874,23.53475 -28.69561,35.61801 -19.41687,12.08327 -23.011,2.55332 -44.62983,10.01298 -21.61883,7.45965 -18.5712,17.17817 -41.30793,19.64016 -22.73673,2.46198 -21.84003,-7.68364 -44.55455,-10.34279 -22.71451,-2.65914 -24.1854,7.41927 -45.7387,-0.22766 -21.5533,-7.64693 -16.34339,-16.39876 -35.6547,-28.65002 -19.31131,-12.25126 -25.00939,-3.80913 -41.11037,-20.0504 C 94.327867,383.97167 102.81912,378.34704 90.735847,358.93017 78.65258,339.5133 69.855882,344.6471 62.396228,323.02827 c -7.459655,-21.61883 2.631129,-23.00223 0.169146,-45.73896 -2.461984,-22.73673 -12.615004,-21.92809 -9.955862,-44.6426 2.659142,-22.71452 12.350859,-19.58269 19.997786,-41.13599 7.646927,-21.5533 -1.851486,-25.22997 10.399777,-44.54128 12.251263,-19.31131 19.624345,-12.28456 35.865615,-28.38553 16.24127,-16.10098 9.27875,-23.534747 28.69562,-35.618015 19.41687,-12.083268 23.01099,-2.553315 44.62982,-10.01297 21.61883,-7.459655 18.5712,-17.178178 41.30793,-19.640161 22.73673,-2.461983 21.84004,7.683639 44.55455,10.342781 22.71452,2.659142 24.18541,-7.419261 45.73871,0.227666 21.5533,7.646927 16.34338,16.398755 35.65469,28.650019 19.31132,12.25126 25.0094,3.80913 41.11037,20.0504 16.10098,16.24127 7.60973,21.8659 19.693,41.28277 12.08327,19.41687 20.87996,14.28307 28.33962,35.9019 7.45965,21.61883 -2.63113,23.00223 -0.16915,45.73896 2.46198,22.73673 12.61501,21.92809 9.95586,44.6426 -2.65914,22.71452 -12.35086,19.58269 -19.99778,41.13599 -7.64693,21.5533 1.85148,25.22997 -10.39978,44.54128 z"
       inkscape:transform-center-x="-0.5393275"
       inkscape:transform-center-y="-0.4265859"
       transform="matrix(1.1015732,0,0,1.1015653,-25.902488,-26.080024)" />
    <path
       sodipodi:type="star"
       style="fill:none;fill-opacity:1;stroke:#434234;stroke-width:5.30207;stroke-miterlimit:4;stroke-dasharray:none;stroke-opacity:1"
       id="path2460-0"
       inkscape:flatsided="false"
       sodipodi:sides="16"
       sodipodi:cx="255.49661"
       sodipodi:cy="256.39828"
       sodipodi:r1="204.27264"
       sodipodi:r2="194.05901"
       sodipodi:arg1="0.56533646"
       sodipodi:arg2="0.761686"
       inkscape:rounded="0.5"
       inkscape:randomized="0"
       inkscape:transform-center-x="-0.32035664"
       inkscape:transform-center-y="-0.1880001"
       d="m 427.98615,365.82713 c -10.80634,17.03372 -18.13238,9.90132 -32.05419,24.49953 -13.9218,14.59821 -6.45013,21.57789 -22.9524,33.17958 -16.50227,11.6017 -20.5412,2.20867 -38.98977,10.36801 -18.44857,8.15934 -14.21664,17.46701 -33.90253,21.87044 -19.6859,4.40342 -19.82282,-5.82024 -39.98952,-5.34195 -20.1667,0.47828 -19.8188,10.69694 -39.69131,7.23171 -19.87251,-3.46524 -16.08659,-12.96306 -34.90122,-20.23865 -18.81463,-7.27558 -22.40373,2.29836 -39.43744,-8.50798 -17.03372,-10.80633 -9.90133,-18.13237 -24.49953,-32.05418 -14.59821,-13.92181 -21.577891,-6.45013 -33.179587,-22.95241 -11.601697,-16.50227 -2.208668,-20.5412 -10.368007,-38.98977 -8.15934,-18.44856 -17.467012,-14.21664 -21.870435,-33.90253 -4.403423,-19.68589 5.820235,-19.82282 5.34195,-39.98952 -0.478286,-20.16669 -10.696941,-19.8188 -7.231709,-39.69131 3.465232,-19.87251 12.96306,-16.08659 20.238643,-34.90122 7.275583,-18.81463 -2.298357,-22.40372 8.50798,-39.43744 10.806336,-17.03372 18.132375,-9.90132 32.054185,-24.49953 13.92181,-14.59821 6.45013,-21.57789 22.95241,-33.179585 16.50227,-11.601697 20.5412,-2.208668 38.98977,-10.368007 18.44856,-8.159339 14.21664,-17.467011 33.90253,-21.870434 19.68589,-4.403423 19.82282,5.820235 39.98951,5.341949 20.1667,-0.478286 19.81881,-10.69694 39.69132,-7.231708 19.8725,3.465232 16.08658,12.96306 34.90121,20.238642 18.81464,7.275583 22.40373,-2.298357 39.43745,8.50798 17.03372,10.806337 9.90132,18.132373 24.49953,32.054183 14.5982,13.92181 21.57789,6.45013 33.17958,22.95241 11.6017,16.50227 2.20867,20.5412 10.36801,38.98977 8.15934,18.44856 17.46701,14.21664 21.87043,33.90253 4.40343,19.68589 -5.82023,19.82282 -5.34195,39.98952 0.47829,20.16669 10.69694,19.8188 7.23171,39.69131 -3.46523,19.87251 -12.96306,16.08659 -20.23864,34.90122 -7.27558,18.81463 2.29836,22.40372 -8.50798,39.43744 z"
       transform="matrix(0.80177407,-0.49649244,0.49646107,0.80174114,-75.658732,176.19649)" />
  </g>
</svg>
